<?xml version="1.0" encoding="UTF-8"?>
<svg id="Layer_2" data-name="Layer 2" xmlns="http://www.w3.org/2000/svg" viewBox="0 0 2216.27 946.755">
  <defs>
    <style>
      .cls-1 {
        fill: none;
        stroke: #000;
        stroke-miterlimit: 10;
      }
    </style>
  </defs>
  <g id="Layer_1-2" data-name="Layer 1">
    <path class="cls-1" d="M2151.224,259.597c17.29,1.032,46.287,5.528,59.14,26.284,0,0,14.122,22.808-3.286,65.711-8.866,21.851-64.504,95.52-175.105,183.958M249.155,657.64c-14.406-1.887-37.607-3.233-64.645,3.262-11.958,2.873-77.302,18.571-92.328,63.596,0,0-9.974,29.888,12.156,70.641,27.91,51.398,236.745,188.81,804.955,141.278,461.101-38.572,784.604-176.129,993.456-308.878M345.79,322.416c14.661,10.161,29.321,20.322,43.982,30.483M70.73,141.256c11.603,7.135,22.684,12.873,31.46,17.064M281.813,43.557c-35.587-12.302-65.971-20.683-88.422-26.286C98.398-6.434,64.192-.683,41.245,8.319,9.821,20.646,3.608,37.461,2.428,41.007.125,47.928.189,54.645,1.052,60.232M446.163,89.362c-8.71-2.655-17.996-5.458-27.674-8.344M1536.035,537.019c-450.742-210.671-796.249-355.81-938.892-401.08M632.48,218.749c-93.666-2.475-118.745,15.889-125.205,32.162-31.989,80.576,309.164,319.855,672.235,427.255,280.295,82.914,477.261,58.714,502.675,14.639,12.473-21.632,8.538-40.267,8.538-40.267-6.94-32.866-50.181-47.685-59.861-50.792M411.651,746.822c63.187-.692,163.913-2.961,287.277-11.171,0,0,937.796-62.412,1222.688-393.587,17.238-20.038,33.395-43.597,26.047-60.775-6.845-16-32.015-21.636-69.171-20.941M706.109,229.195c325.476,111.735,581.78,114.607,762.778,92.725,93.712-11.329,198.322-33.052,285.96-47.444M1914.784,326.196c40.415-12.479,78.72-25.227,114.835-37.964M1704.414,383.008c28.353-6.58,55.985-13.42,82.878-20.46M559.563,427.322c205.991,31.174,483.514,51.702,806.953,14.264,91.953-10.643,178.928-24.966,260.551-41.684"/>
  </g>
</svg>