<svg width="1062" height="454" viewBox="0 0 1062 454" fill="none" xmlns="http://www.w3.org/2000/svg">
<path d="M1030.83 124.485C1039.12 124.98 1053.01 127.136 1059.17 137.089C1059.17 137.089 1065.94 148.027 1057.6 168.6C1053.35 179.078 1026.69 214.405 973.688 256.814M119.391 315.36C112.488 314.455 101.371 313.81 88.4144 316.924C82.6843 318.302 51.3725 325.83 44.1723 347.421C44.1723 347.421 39.3929 361.753 49.9973 381.295C63.3713 405.942 163.442 471.836 435.718 449.043C656.67 430.546 811.688 364.583 911.766 300.926M168 156.5C175.025 161.373 179.747 164.354 186.773 169.227M36 68.5C41.56 71.9215 42.2947 72.9903 46.5 75M135.04 20.8871C117.988 14.9878 103.428 10.9689 92.67 8.28206C47.1509 -3.08526 30.76 -0.327471 19.7641 3.98928C4.70627 9.90048 1.7291 17.9638 1.16367 19.6642C0.0601073 22.9831 0.0907751 26.2041 0.504311 28.8833M217.5 42.8521C213.326 41.5789 211.638 40.8839 207 39.5M717.5 257.518C501.512 156.495 358.352 87.7084 290 66M308.5 104.5C263.617 103.313 246.174 112.517 243.078 120.32C227.749 158.959 391.224 273.701 565.202 325.203C699.515 364.963 793.898 353.358 806.076 332.223C812.052 321.849 810.167 312.913 810.167 312.913C806.841 297.153 786.121 290.047 781.482 288.557M205.5 358.126C235.778 357.794 275.801 356.706 334.915 352.769C334.915 352.769 784.291 322.84 920.807 164.031C929.067 154.422 936.809 143.125 933.288 134.887C930.008 127.215 917.947 124.512 900.143 124.845M359 120.32C514.963 173.901 617.135 164.864 703.867 154.371C748.772 148.939 798.899 138.522 840.894 131.62M922.5 155C941.866 149.016 955.254 144.325 972.56 138.217M823.5 181.5C837.086 178.345 847.113 177.23 860 173.854M268.134 204.915C366.841 219.864 499.826 229.708 654.812 211.755C698.875 206.651 730.388 199.783 769.5 191.766" stroke="black" stroke-miterlimit="10"/>
</svg>
